<svg width="253" height="100" viewBox="0 0 253 100" fill="none" xmlns="http://www.w3.org/2000/svg">
	<path d="M227.921 54.737C224.833 54.737 222.802 56.4511 222.411 59.2949H222.215V55.2824H219.011V72.1114H222.372V65.4499C222.372 61.2037 224.013 56.9575 227.217 56.9575C229.796 56.9575 230.304 58.8664 230.304 62.0607V72.0724H233.665V62.0218C233.704 57.3081 232.336 54.737 227.921 54.737ZM245.896 54.737C241.129 54.737 237.846 58.3599 237.846 63.6969C237.846 68.9949 241.168 72.6567 245.896 72.6567C248.866 72.6567 251.64 71.1764 252.695 69.1117L249.999 67.5146C249.335 69.2286 247.654 70.3973 245.935 70.3973C243.239 70.3973 241.441 68.021 241.402 64.5929H252.734C253.086 58.7105 250.312 54.737 245.896 54.737ZM241.441 62.2166C241.715 59.1001 243.473 56.9575 245.896 56.9575C248.084 56.9575 249.491 59.0611 249.686 62.2166H241.441ZM173.526 37.2458L170.829 35.6486C170.165 37.3627 168.485 38.5314 166.765 38.5314C164.069 38.5314 162.271 36.1551 162.232 32.727H173.526C173.916 26.8446 171.142 22.8711 166.726 22.8711C161.959 22.8711 158.715 26.494 158.715 31.831C158.715 37.129 162.037 40.7908 166.765 40.7908C169.735 40.7908 172.471 39.3105 173.526 37.2458ZM166.726 25.1306C168.915 25.1306 170.321 27.2342 170.517 30.3896H162.271C162.545 27.2342 164.303 25.1306 166.726 25.1306ZM145.664 33.4282L147.305 31.9089L153.87 40.2454H157.778L149.767 30.1169V29.7663L156.371 23.4555H152.463L145.664 29.9611V16.0149H142.303V40.2454H145.664V33.4282ZM181.302 31.7141C181.302 28.6755 183.138 25.7538 185.444 25.7538C187.124 25.7538 188.023 26.8057 188.218 27.0784L189.625 24.5852C188.844 23.6502 187.359 22.988 185.796 22.988C182.982 22.988 181.732 25.0526 181.302 27.1173H181.107V23.4165H177.941V40.2454H181.302V31.7141ZM107.408 61.5933L114.012 55.2824H110.104L103.304 61.827V47.9198H99.9439V72.1503H103.304V65.333L104.946 63.8138L111.511 72.1503H115.418L107.408 62.0218V61.5933ZM124.719 54.737C119.834 54.737 116.512 58.3599 116.512 63.6969C116.512 68.9949 119.834 72.6567 124.719 72.6567C129.564 72.6567 132.886 69.0338 132.886 63.6969C132.886 58.3989 129.564 54.737 124.719 54.737ZM124.719 70.4363C121.944 70.4363 120.068 67.7093 120.068 63.6969C120.068 59.6844 121.944 56.9575 124.719 56.9575C127.493 56.9575 129.33 59.6844 129.33 63.6969C129.33 67.7093 127.493 70.4363 124.719 70.4363ZM157.465 54.737C154.417 54.737 152.268 56.4121 151.76 59.2949H151.564C151.213 56.2953 149.611 54.737 146.133 54.737C143.046 54.737 141.014 56.4511 140.623 59.2949H140.427V55.2824H137.223V72.1114H140.584V65.4499C140.584 61.2037 142.225 56.9575 145.429 56.9575C148.008 56.9575 148.516 58.8664 148.516 62.0218V72.0724H151.877V65.4109C151.877 61.1647 153.518 56.9186 156.723 56.9186C159.302 56.9186 159.81 58.8274 159.81 61.9828V72.0334H163.17V62.0218C163.287 57.3081 161.881 54.737 157.465 54.737ZM131.948 30.039C129.838 29.5326 127.884 29.0651 127.884 27.39C127.923 26.0265 129.33 25.0916 131.323 25.0916C133.081 25.0916 134.566 26.3382 134.683 28.286L137.77 27.5069C137.34 24.702 134.761 22.8711 131.362 22.8711C127.337 22.8711 124.601 24.702 124.562 27.5458C124.484 30.8571 127.884 32.1426 130.697 32.8828C132.886 33.4671 134.957 34.0515 134.918 35.9213C134.879 37.4796 133.316 38.5314 131.127 38.5314C128.822 38.5314 127.298 37.0511 127.141 34.9085L124.054 35.6876C124.406 38.7651 127.141 40.7519 130.971 40.7519C135.308 40.7519 138.278 38.7262 138.278 35.6876C138.278 32.0257 134.8 30.7402 131.948 30.039ZM210.453 61.9439C210.453 66.1901 208.812 70.4363 205.608 70.4363C203.029 70.4363 202.521 68.5274 202.521 65.333V55.3214H199.16V65.372C199.16 70.1246 200.528 72.6567 204.943 72.6567C208.03 72.6567 210.062 70.9427 210.453 68.0989H210.649V72.1114H213.853V55.2824H210.492V61.9439H210.453ZM188.492 54.737C185.444 54.737 183.295 56.4121 182.787 59.2949H182.591C182.24 56.2953 180.638 54.737 177.16 54.737C174.073 54.737 172.041 56.4511 171.65 59.2949H171.455V55.2824H168.25V72.1114H171.611V65.4499C171.611 61.2037 173.252 56.9575 176.456 56.9575C179.035 56.9575 179.543 58.8664 179.543 62.0218V72.0724H182.904V65.4109C182.904 61.1647 184.545 56.9186 187.75 56.9186C190.329 56.9186 190.837 58.8274 190.837 61.9828V72.0334H194.197V62.0218C194.314 57.3081 192.947 54.737 188.492 54.737ZM122.061 40.2454L112.722 16.7161H108.384L99.1233 40.2454H102.367L104.985 33.3502H115.731L118.349 40.2454H122.061ZM106.001 30.7012L110.26 19.5988H110.534L114.793 30.7012H106.001Z" fill="white" />
	<path d="M79.0625 0H0V60.4688C0 85.5859 17.6953 100 39.5312 100C61.3672 100 79.0625 85.2344 79.0625 60.4688V0Z" fill="#006EB6" />
	<path d="M30.8984 8.47656C31.6797 12.5 32.1094 16.6797 32.1484 20.8984C32.4219 40.7422 24.6875 58.8281 11.9141 72.0703C17.3438 71.1328 38.0469 68.8672 44.375 83.2812C49.4922 74.375 52.3828 64.0234 52.2266 53.0078C51.9922 35.3125 43.7109 19.1406 30.8984 8.47656ZM21.2891 53.8281C24.9219 46.8359 27.3437 39.2187 28.3984 31.3281C25.7031 25.9766 21.4062 21.4062 17.5 18.8281C17.6562 19.8047 17.8125 20.7812 17.9297 21.7969C19.2969 34.2969 15.3125 46.1328 7.8125 55.0781C11.5234 54.1406 17.0703 53.4766 21.2891 53.8281ZM53.125 15.9766C53.7891 18.9844 54.2188 22.4609 54.1797 25.8594C54.1797 29.5312 53.7109 33.0859 52.8516 36.4844C54.4141 41.7969 55.2734 47.3438 55.3125 53.0078C55.3906 57.6562 54.9219 62.3047 53.9453 66.7969C58.3203 67.6562 62.1875 69.9609 63.5938 74.3359C66.6016 67.8125 68.2422 60.5469 68.2812 52.8906C68.3594 38.4375 62.5781 25.4688 53.125 15.9766Z" fill="white" />
</svg>