<svg preserveAspectRatio="xMidYMid meet" data-bbox="46.744 45.635 260.84 273.506" height="500" viewBox="46.744 45.635 260.84 273.506" width="500" xmlns="http://www.w3.org/2000/svg" data-type="color" role="img" aria-label="&quot;Neo Pizza Neapolitan Taste&quot;"><defs><style>#comp-mbkwrxkn svg [data-color="1"] {fill: #C9C8C8;}
#comp-mbkwrxkn svg [data-color="2"] {fill: #FDFCFC;}</style></defs>
    <g>
        <defs>
            <clipPath id="24beb2d5-280a-4050-867a-8b9d3935d467_comp-mbkwrxkn">
                <path d="M114 123h69v67h-69Zm0 0"></path>
            </clipPath>
            <clipPath id="7bc97941-47ab-4ac7-b91f-2081ffebe580_comp-mbkwrxkn">
                <path d="m238.75 208.04-98.812 87.519L50.43 194.496l98.812-87.516Zm0 0"></path>
            </clipPath>
            <clipPath id="30ad870d-cfde-45f6-90da-89b8a148d945_comp-mbkwrxkn">
                <path d="m238.75 208.04-98.812 87.519L50.43 194.496l98.812-87.516Zm0 0"></path>
            </clipPath>
            <clipPath id="e4569481-38f1-404d-9ba6-f2edc31208c3_comp-mbkwrxkn">
                <path d="M140 149h17v17h-17Zm0 0"></path>
            </clipPath>
            <clipPath id="f95195ce-9453-4a46-bb80-4e91ac95ee26_comp-mbkwrxkn">
                <path d="m238.75 208.04-98.812 87.519L50.43 194.496l98.812-87.516Zm0 0"></path>
            </clipPath>
            <clipPath id="b1b0a9dd-3612-4384-9d1b-b3e660bdf572_comp-mbkwrxkn">
                <path d="m238.75 208.04-98.812 87.519L50.43 194.496l98.812-87.516Zm0 0"></path>
            </clipPath>
            <clipPath id="543c3ac8-8ef4-4612-b816-b5e169f37a3a_comp-mbkwrxkn">
                <path d="M145 154h6v6h-6Zm0 0"></path>
            </clipPath>
            <clipPath id="9e54ff1f-9ee0-4526-8d62-041b8a8f6363_comp-mbkwrxkn">
                <path d="m238.75 208.04-98.812 87.519L50.43 194.496l98.812-87.516Zm0 0"></path>
            </clipPath>
            <clipPath id="451c534c-b90e-4b52-8b66-6e65ff90dcd0_comp-mbkwrxkn">
                <path d="m238.75 208.04-98.812 87.519L50.43 194.496l98.812-87.516Zm0 0"></path>
            </clipPath>
            <clipPath id="db4eaa50-a20a-4344-820e-bc6da24597f8_comp-mbkwrxkn">
                <path d="M119 187h60v15h-60Zm0 0"></path>
            </clipPath>
            <clipPath id="de72a075-b1d7-4450-9fc2-24530758c63c_comp-mbkwrxkn">
                <path d="m238.75 208.04-98.812 87.519L50.43 194.496l98.812-87.516Zm0 0"></path>
            </clipPath>
            <clipPath id="e0d8ba7b-e730-42ec-b662-a7506cad511c_comp-mbkwrxkn">
                <path d="m238.75 208.04-98.812 87.519L50.43 194.496l98.812-87.516Zm0 0"></path>
            </clipPath>
            <clipPath id="4aa84665-c6ec-43e5-99e5-a19e4427954f_comp-mbkwrxkn">
                <path d="M126 201h38v92h-38Zm0 0"></path>
            </clipPath>
            <clipPath id="06d2c254-a872-42e7-9a35-197405a69577_comp-mbkwrxkn">
                <path d="m238.75 208.04-98.812 87.519L50.43 194.496l98.812-87.516Zm0 0"></path>
            </clipPath>
            <clipPath id="085c2e1a-205f-400a-b948-1d1bc831210e_comp-mbkwrxkn">
                <path d="m238.75 208.04-98.812 87.519L50.43 194.496l98.812-87.516Zm0 0"></path>
            </clipPath>
            <clipPath id="ba79b2fe-04e4-4e3a-b8ff-d8905309674f_comp-mbkwrxkn">
                <path d="M133 166h26v32h-26Zm0 0"></path>
            </clipPath>
            <clipPath id="6e03a2ac-58af-494e-993e-d0e316ba1915_comp-mbkwrxkn">
                <path d="m238.75 208.04-98.812 87.519L50.43 194.496l98.812-87.516Zm0 0"></path>
            </clipPath>
            <clipPath id="1f8429b8-a623-4731-a506-10b26846beee_comp-mbkwrxkn">
                <path d="m238.75 208.04-98.812 87.519L50.43 194.496l98.812-87.516Zm0 0"></path>
            </clipPath>
        </defs>
        <path d="M86.196 197.796q12.218-7.452 14-7.453c1.188 0 3.055 1.524 5.61 4.563q3.843 4.548 3.843 8.219v34.578q-.001.782-8.843 4.343-8.831 3.564-14.61 5.329v11.234q0 4.111.89 5.89.892 1.782 3.657 1.782v3.453l-22.781 9.563-1.781-3.563c1.625 0 3.18-.96 4.672-2.89 1.332-1.852 2-4.673 2-8.454v-57.594c0-4.519-1.524-7.078-4.563-7.671v-2.438l11.234-6.344q2.216.89 4.438 3.235 2.233 2.331 2.234 4.218m4.328 3.22q-2.003 0-4.328 1.671v39.469q2.888 0 6.438-1.828 3.562-1.84 3.562-3.844V209.25q0-8.234-5.672-8.235m0 0" fill="#368032" data-color="1"></path>
        <path d="M201.071 264.843q6.78.002 7.672-3.672h2.438l6.343 9.11q-1.346 2.127-3.453 3.797-2.11 1.657-4.11 1.656h-29.14q-2.22-6.78-2.219-10.562l26.688-63.047h-10.234q-6.784.002-7.672 3.671h-2.438l-6.344-9.109q1.343-2.122 3.453-3.781c1.407-1.113 2.774-1.672 4.11-1.672h14.906q6.78 0 7.672-3.672h2.438q1.56 2.109 3.953 7.734 2.39 5.613 2.39 6.72l-25.25 62.827Zm0 0" fill="#368032" data-color="1"></path>
        <path d="M242.21 264.843q6.78.002 7.672-3.672h2.438l6.343 9.11q-1.346 2.127-3.453 3.797-2.11 1.657-4.11 1.656h-29.14q-2.22-6.78-2.219-10.562l26.688-63.047h-10.234q-6.784.002-7.672 3.671h-2.438l-6.344-9.109q1.343-2.122 3.453-3.781c1.407-1.113 2.774-1.672 4.11-1.672h14.906q6.78 0 7.672-3.672h2.438q1.56 2.109 3.953 7.734 2.39 5.613 2.39 6.72l-25.25 62.827Zm0 0" fill="#368032" data-color="1"></path>
        <path d="M265.334 264.39v-63.812q-.001-.779 12.671-5.5 12.67-4.735 14.563-4.735c1.258 0 3.164 1.524 5.719 4.563q3.843 4.548 3.843 8.219v29.14h5.454v2.656l-5.454 2.782v21.578q0 6.11 5.344 7.219v2.453l-12.125 6.781q-2.44-.996-4.562-3.281-2.11-2.28-2.11-4.281v-30.47h-10v20.907q0 4.111.89 5.89.892 1.782 3.657 1.782v3.453l-22.781 9.563-1.781-3.563c1.625 0 3.18-.96 4.672-2.89 1.332-1.852 2-4.673 2-8.454m17.671-63.703c-1.48 0-2.921.555-4.328 1.656v32.813l6.563-2.89h3.437v-23.36q0-8.217-5.672-8.219m0 0" fill="#368032" data-color="1"></path>
        <g clip-path="url(#24beb2d5-280a-4050-867a-8b9d3935d467_comp-mbkwrxkn)">
            <g clip-path="url(#7bc97941-47ab-4ac7-b91f-2081ffebe580_comp-mbkwrxkn)">
                <g clip-path="url(#30ad870d-cfde-45f6-90da-89b8a148d945_comp-mbkwrxkn)">
                    <path d="M141.941 165.418a10.32 10.32 0 0 1-3.937-8.785 10.42 10.42 0 0 1 3.496-7.153 10.4 10.4 0 0 1 7.523-2.605 10.33 10.33 0 0 1 7.153 3.48 10.3 10.3 0 0 1 2.586 7.52c-.215 3.531-2.188 6.547-5.008 8.262l5.586 23.117c12.879-4.441 22.008-16.324 22.851-29.988.555-9.028-2.437-17.727-8.43-24.489-5.988-6.765-14.261-10.789-23.292-11.324-18.64-1.113-34.742 13.149-35.89 31.79-.845 13.636 6.76 26.542 18.987 32.476Zm0 0" fill="#e22828" data-color="2"></path>
                </g>
            </g>
        </g>
        <g clip-path="url(#e4569481-38f1-404d-9ba6-f2edc31208c3_comp-mbkwrxkn)">
            <g clip-path="url(#f95195ce-9453-4a46-bb80-4e91ac95ee26_comp-mbkwrxkn)">
                <g clip-path="url(#b1b0a9dd-3612-4384-9d1b-b3e660bdf572_comp-mbkwrxkn)">
                    <path d="M154.559 151.785a8.16 8.16 0 0 0-5.668-2.758c-4.536-.27-8.453 3.203-8.735 7.739a8.16 8.16 0 0 0 2.051 5.957 8.16 8.16 0 0 0 5.668 2.754 8.23 8.23 0 0 0 5.965-2.067 8.23 8.23 0 0 0 2.77-5.668 8.16 8.16 0 0 0-2.051-5.957m-1.61 5.742a4.59 4.59 0 0 1-4.844 4.29 4.53 4.53 0 0 1-3.148-1.528 4.54 4.54 0 0 1-1.137-3.309 4.57 4.57 0 0 1 1.535-3.144 4.58 4.58 0 0 1 3.31-1.149 4.54 4.54 0 0 1 3.144 1.532 4.55 4.55 0 0 1 1.14 3.308m0 0" fill="#e22828" data-color="2"></path>
                </g>
            </g>
        </g>
        <g clip-path="url(#543c3ac8-8ef4-4612-b816-b5e169f37a3a_comp-mbkwrxkn)">
            <g clip-path="url(#9e54ff1f-9ee0-4526-8d62-041b8a8f6363_comp-mbkwrxkn)">
                <g clip-path="url(#451c534c-b90e-4b52-8b66-6e65ff90dcd0_comp-mbkwrxkn)">
                    <path d="M145.973 157.113c-.04.64.172 1.262.601 1.746a2.414 2.414 0 0 0 3.406.2c.465-.41.774-1 .817-1.664a2.405 2.405 0 0 0-2.262-2.551 2.423 2.423 0 0 0-2.562 2.27m0 0" fill="#e22828" data-color="2"></path>
                </g>
            </g>
        </g>
        <g clip-path="url(#db4eaa50-a20a-4344-820e-bc6da24597f8_comp-mbkwrxkn)">
            <g clip-path="url(#de72a075-b1d7-4450-9fc2-24530758c63c_comp-mbkwrxkn)">
                <g clip-path="url(#e0d8ba7b-e730-42ec-b662-a7506cad511c_comp-mbkwrxkn)">
                    <path d="M178.203 192.063c.262-.258.45-.696.438-1.13-.008-.296-.11-.558-.27-.699-.226-.195-.703-.265-1.207-.047-4.68 3.875-10.445 6.594-16.68 7.985-.03.012-.054.035-.086.043-.035.008-.07-.004-.105.004a44.6 44.6 0 0 1-12.156.941c-10.23-.61-19.63-4.555-26.48-11.113-.505-.328-1.055-.309-1.333-.113-.187.136-.336.402-.375.71-.054.422.078.86.367 1.2 6.739 6.84 16.829 11.168 27.637 11.812 15.219.906 26.227-6.406 30.25-9.594m0 0" fill="#e22828" data-color="2"></path>
                </g>
            </g>
        </g>
        <g clip-path="url(#4aa84665-c6ec-43e5-99e5-a19e4427954f_comp-mbkwrxkn)">
            <g clip-path="url(#06d2c254-a872-42e7-9a35-197405a69577_comp-mbkwrxkn)">
                <g clip-path="url(#085c2e1a-205f-400a-b948-1d1bc831210e_comp-mbkwrxkn)">
                    <path d="M138.574 291.898a3.63 3.63 0 0 0 3.07 1.024 3.69 3.69 0 0 0 2.72-1.836 128 128 0 0 0 5.042-9.785l-5.883-3.95a1.08 1.08 0 0 1-.296-1.496 1.073 1.073 0 0 1 1.496-.293l5.566 3.731a126 126 0 0 0 3.867-9.832l-7.094-3.727a1.073 1.073 0 0 1-.453-1.453q.096-.18.239-.308a1.08 1.08 0 0 1 1.214-.145l6.805 3.57a128 128 0 0 0 2.856-10.171l-6.364-2.868a1.079 1.079 0 1 1 .891-1.964l5.957 2.683c.29-1.32.578-2.64.824-3.973a126.8 126.8 0 0 0 1.11-39.062c-.446-3.512.734-7.008 3.238-9.582l.586-.606a45.5 45.5 0 0 1-16.145 1.954 48.7 48.7 0 0 1-10.71-1.856l1.171 1.16a11.8 11.8 0 0 1 3.485 8.41 156.6 156.6 0 0 1-3.45 31.641 156.5 156.5 0 0 1-11.379 33.793 3.68 3.68 0 0 0 .735 4.176Zm0 0" fill="#e22828" data-color="2"></path>
                </g>
            </g>
        </g>
        <g clip-path="url(#ba79b2fe-04e4-4e3a-b8ff-d8905309674f_comp-mbkwrxkn)">
            <g clip-path="url(#6e03a2ac-58af-494e-993e-d0e316ba1915_comp-mbkwrxkn)">
                <g clip-path="url(#1f8429b8-a623-4731-a506-10b26846beee_comp-mbkwrxkn)">
                    <path d="m158.828 196.313-7.066-29.239c-1.254.438-2.61.64-4.016.559a10.5 10.5 0 0 1-3.945-1.035l-10.102 26.906c4.465 1.988 9.399 3.195 14.567 3.504 3.586.21 7.14-.035 10.562-.696m0 0" fill="#e22828" data-color="2"></path>
                </g>
            </g>
        </g>
        <path d="m65.494 58.439-18.75 6.14 8.485 4.282 16.61 50.734-4.298 8.484 19.032-6.234-8.375-4.328-12.063-36.828 22.828 40.375 12.188-3.985-18.703-57.125 4.28-8.468-19.03 6.234 8.375 4.312 12.062 36.844Zm0 0" fill="#e22828" data-color="2"></path>
        <path d="m163.164 45.65-37.563-.015 6.719 6.609-.031 53.594-6.72 6.609 38.173.016.015-18.735-9.937 13.422h-9.516l.016-25.437h3.406l6.719 10.015V66.385L147.726 76.4h-3.406l.016-25.437h8.812l10 13.422Zm0 0" fill="#e22828" data-color="2"></path>
        <path d="M223.965 57.05q-5.051-1.64-10.782 1.578-5.737 3.22-10.859 10.297-5.11 7.078-8.11 16.203-2.736 8.379-2.624 16.547c.082 5.437 1.07 10.086 2.968 13.937q2.841 5.78 7.704 7.375 4.84 1.594 10.437-1.484 5.591-3.063 10.484-9.625 4.904-6.575 7.704-15.14 2.936-8.936 3-17.5.077-8.579-2.547-14.595-2.613-6.011-7.375-7.593m-1.922 4.953q1.624.534 1.719 4.578.092 4.03-1.297 10.64-1.376 6.612-4 14.594-2.783 8.485-5.547 14.532c-1.844 4.03-3.57 7.054-5.172 9.062q-2.408 3.011-4.125 2.438c-1.149-.368-1.75-1.84-1.813-4.422q-.095-3.889 1.297-10.391c.938-4.344 2.305-9.27 4.11-14.781q2.654-8.092 5.453-14.235 2.81-6.14 5.281-9.343 2.483-3.2 4.094-2.672m0 0" fill="#e22828" data-color="2"></path>
        <path d="m67.73 313.048-.156-3.157h1.876l-.157 3.157Zm2.47 0-.157-3.157h1.86l-.157 3.157Zm0 0" fill="#e22828" data-color="2"></path>
        <path d="M79.747 319.032v-8.797h1.938l3.968 5.813v-5.813h1.875v8.797h-1.937l-3.969-5.797v5.797Zm0 0" fill="#e22828" data-color="2"></path>
        <path d="M95.263 319.032v-8.797h6.14v1.563h-4.265v1.906h3.5v1.578h-3.5v2.188h4.484v1.562Zm0 0" fill="#e22828" data-color="2"></path>
        <path d="m108.54 319.032 3.484-8.797h1.5l3.5 8.797h-1.843l-.657-1.656h-3.5l-.656 1.656Zm3.125-3.219h2.219l-1.11-2.781Zm0 0" fill="#e22828" data-color="2"></path>
        <path d="M124.174 319.032v-8.797h3.406q.998 0 1.75.453.75.439 1.172 1.188.422.75.422 1.672 0 .907-.422 1.656-.422.75-1.172 1.203c-.5.293-1.086.438-1.75.438h-1.531v2.187Zm1.875-3.734h1.39q.48 0 .844-.235.357-.233.563-.625a2 2 0 0 0 .203-.89q-.002-.482-.203-.875a1.7 1.7 0 0 0-.563-.625 1.47 1.47 0 0 0-.844-.25h-1.39Zm0 0" fill="#e22828" data-color="2"></path>
        <path d="M142.763 319.095a5.1 5.1 0 0 1-1.797-.313 4.4 4.4 0 0 1-2.437-2.328 4.7 4.7 0 0 1-.344-1.813q-.001-1.013.344-1.828.357-.809.984-1.406a4.3 4.3 0 0 1 1.453-.906 5.2 5.2 0 0 1 1.797-.313q.983.001 1.812.313.827.314 1.454.906.622.597.968 1.406.36.815.36 1.828 0 .986-.36 1.813a4.2 4.2 0 0 1-.969 1.406 4.5 4.5 0 0 1-1.453.922 5 5 0 0 1-1.812.313m0-1.563q.824 0 1.422-.375.608-.375.953-1.031c.226-.438.344-.93.344-1.485 0-.562-.118-1.062-.344-1.5a2.6 2.6 0 0 0-.953-1.03c-.406-.25-.883-.376-1.422-.376q-.797 0-1.406.375-.612.375-.953 1.031-.345.657-.344 1.5c0 .555.113 1.047.344 1.485q.34.656.953 1.031.61.375 1.406.375m0 0" fill="#e22828" data-color="2"></path>
        <path d="M154.85 319.032v-8.797h1.874v7.234h3.688v1.563Zm0 0" fill="#e22828" data-color="2"></path>
        <path d="M167.92 319.032v-8.797h1.874v8.797Zm0 0" fill="#e22828" data-color="2"></path>
        <path d="M179.512 319.032v-7.234h-2.438v-1.563h6.735v1.563h-2.422v7.234Zm0 0" fill="#e22828" data-color="2"></path>
        <path d="m190.613 319.032 3.484-8.797h1.5l3.5 8.797h-1.843l-.657-1.656h-3.5l-.656 1.656Zm3.125-3.219h2.219l-1.11-2.781Zm0 0" fill="#e22828" data-color="2"></path>
        <path d="M206.356 319.032v-8.797h1.938l3.968 5.813v-5.813h1.875v8.797H212.2l-3.969-5.797v5.797Zm0 0" fill="#e22828" data-color="2"></path>
        <path d="M234.637 319.032v-7.234h-2.438v-1.563h6.735v1.563h-2.422v7.234Zm0 0" fill="#e22828" data-color="2"></path>
        <path d="m245.738 319.032 3.484-8.797h1.5l3.5 8.797h-1.843l-.657-1.656h-3.5l-.656 1.656Zm3.125-3.219h2.219l-1.11-2.781Zm0 0" fill="#e22828" data-color="2"></path>
        <path d="M264.84 319.141q-1.065 0-2.03-.39a4.8 4.8 0 0 1-1.673-1.156l1.22-1.22q.245.235.608.516.374.284.813.485.45.204.953.203c.375 0 .695-.078.969-.235q.422-.232.422-.734a.78.78 0 0 0-.281-.625 2.4 2.4 0 0 0-.735-.437l-1.062-.454c-.243-.113-.5-.238-.782-.375a5.3 5.3 0 0 1-.812-.515 2.7 2.7 0 0 1-.625-.688 1.73 1.73 0 0 1-.25-.937q-.001-.796.437-1.328.436-.546 1.141-.828a3.9 3.9 0 0 1 1.453-.282 5 5 0 0 1 1.985.391q.903.392 1.484 1l-1.125 1.188a3 3 0 0 0-.563-.438 5 5 0 0 0-.828-.406 2.7 2.7 0 0 0-.953-.172q-.157.002-.437.062a1.2 1.2 0 0 0-.5.22q-.222.173-.22.546-.001.41.36.703.375.281 1.266.61.843.297 1.5.671.656.363 1.031.86.388.503.39 1.234-.001.844-.452 1.406-.44.563-1.157.844a4.1 4.1 0 0 1-1.546.281m0 0" fill="#e22828" data-color="2"></path>
        <path d="M277.559 319.032v-7.234h-2.438v-1.563h6.735v1.563h-2.422v7.234Zm0 0" fill="#e22828" data-color="2"></path>
        <path d="M289.237 319.032v-8.797h6.14v1.563h-4.265v1.906h3.5v1.578h-3.5v2.188h4.484v1.562Zm0 0" fill="#e22828" data-color="2"></path>
        <path d="m303.232 313.048-.157-3.157h1.875l-.156 3.157Zm2.468 0-.156-3.157h1.86l-.157 3.157Zm0 0" fill="#e22828" data-color="2"></path>
        <path d="M70.119 160.797v-14.453q0-.186 2.859-1.25c1.914-.719 3.016-1.078 3.297-1.078q.433 0 1.312 1.03.874 1.032.875 1.876v6.594h1.235v.609l-1.235.625v4.89q-.002 1.395 1.203 1.641v.563l-2.75 1.531a3.05 3.05 0 0 1-1.03-.75c-.325-.344-.485-.664-.485-.969v-6.906h-2.266v4.75q0 .925.203 1.328c.133.274.41.406.828.406v.782l-5.156 2.172-.406-.813q.546 0 1.063-.656.452-.621.453-1.922m4-14.438q-.504 0-.985.375v7.438l1.485-.656h.78v-5.282q-.002-1.875-1.28-1.875m0 0" fill="#368032" data-color="1"></path>
        <path d="M80.983 160.5v-12.422q0-.827-.36-1.437c-.242-.407-.531-.61-.875-.61v-.547q.17-.03 2.735-1.547.187.064.437.157.246.08.656.484c.282.274.422.578.422.922q.154-.059.86-.469 1.856-1.061 2.218-1.062.811 0 1.516 1.062.703 1.048.703 1.938v12.672q-.001 1.394 1.234 1.64v.563l-2.75 1.531a3.05 3.05 0 0 1-1.03-.75c-.325-.344-.485-.664-.485-.969v-12.344q0-1.593-.469-2.171-.456-.576-1.797-.578V159.5q-.001 1.001.25 1.375.247.362.781.36v.78l-5.156 2.173-.406-.813q.498 0 .984-.61.53-.701.532-2.265m0 0" fill="#368032" data-color="1"></path>
        <path d="M91.822 160.5v-12.422q0-.827-.36-1.437-.361-.61-.875-.61v-.547q.17-.03 2.735-1.547.187.064.437.157.246.08.656.484c.282.274.422.578.422.922q.154-.059.86-.469 1.856-1.061 2.218-1.062.811 0 1.516 1.062.703 1.048.703 1.938v12.672q-.001 1.394 1.234 1.64v.563l-2.75 1.531a3.05 3.05 0 0 1-1.03-.75c-.325-.344-.485-.664-.485-.969v-12.344q0-1.593-.469-2.171-.456-.576-1.797-.578V159.5q-.001 1.001.25 1.375.247.362.781.36v.78l-5.156 2.173-.406-.813q.498 0 .984-.61.53-.701.532-2.265m0 0" fill="#368032" data-color="1"></path>
        <path d="M102.66 159.703v-13.422q0-.168 2.86-1.234c1.914-.719 3.016-1.078 3.297-1.078q.433 0 1.312 1.031.874 1.033.875 1.86v14.171q0 .205-2.765 1.281c-1.844.711-2.977 1.063-3.39 1.063q-.61 0-1.407-1.078c-.524-.727-.781-1.594-.781-2.594m4.297 1.36q.48.002.985-.407v-12.484c0-1.238-.43-1.86-1.281-1.86q-.504 0-.985.375v12.5q0 1.875 1.281 1.875m0 0" fill="#368032" data-color="1"></path>
        <path d="M189.837 148.11q0-1.108-.219-1.548a.72.72 0 0 0-.703-.453q-.486.001-.89.5v2.328q-.001.33-.032.5-.018.16-.187.36-.159.187-.516.328l-2.625 1-.344-.36c.445-.5.672-1.035.672-1.609v-2.875q-.002-.14 2.656-1.219c1.781-.726 2.82-1.093 3.125-1.093q.469 0 1.281 1.125t.813 1.719v3.453q-.001 1.345-1.484 4.015c-.98 1.781-1.961 3.336-2.938 4.656l-1.453 2.016q2.793-.047 3.25-.047c.926 0 1.488-.273 1.688-.828q.279.017.406.016h.156l1.406 2.047q-.08.128-.219.343-.14.206-.64.547-.487.344-1.063.344H184.9q-.532-1.359-.531-2.344 0-.327 1.36-2.375a152 152 0 0 0 2.734-4.312c.914-1.508 1.375-2.531 1.375-3.063Zm0 0" fill="#368032" data-color="1"></path>
        <path d="M195.14 159.703v-13.422q0-.168 2.859-1.234c1.914-.719 3.016-1.078 3.297-1.078q.433 0 1.312 1.031.874 1.033.875 1.86v14.171q0 .205-2.765 1.281c-1.844.711-2.977 1.063-3.39 1.063q-.61 0-1.407-1.078c-.524-.727-.781-1.594-.781-2.594m4.297 1.36q.48.002.984-.407v-12.484c0-1.238-.43-1.86-1.281-1.86q-.504 0-.985.375v12.5q0 1.875 1.281 1.875m-.704-5.985v-2.031q0-.03.375-.172.388-.155.453-.156.06.002.172.156c.07.094.11.2.11.313v2.171c0 .024-.121.078-.36.172-.242.086-.39.125-.453.125-.062 0-.133-.047-.203-.14q-.094-.155-.094-.438m0 0" fill="#368032" data-color="1"></path>
        <path d="M210.457 148.11q0-1.108-.219-1.548a.72.72 0 0 0-.703-.453q-.486.001-.89.5v2.328q-.001.33-.032.5-.018.16-.187.36-.159.187-.516.328l-2.625 1-.344-.36c.445-.5.672-1.035.672-1.609v-2.875q-.002-.14 2.656-1.219c1.781-.726 2.82-1.093 3.125-1.093q.469 0 1.281 1.125t.813 1.719v3.453q-.001 1.345-1.484 4.015c-.98 1.781-1.961 3.336-2.938 4.656l-1.453 2.016q2.793-.047 3.25-.047c.926 0 1.488-.273 1.688-.828q.279.017.406.016h.156l1.406 2.047q-.08.128-.219.343-.14.206-.64.547-.487.344-1.063.344h-7.078q-.532-1.359-.531-2.344 0-.327 1.36-2.375a152 152 0 0 0 2.734-4.312c.914-1.508 1.375-2.531 1.375-3.063Zm0 0" fill="#368032" data-color="1"></path>
        <path d="M218.774 146.688v4.64q-.002 1.018.453 1.016c.07 0 .594-.219 1.563-.656q1.465-.657 1.766-.657.609 0 1.078 1.078.468 1.08.468 2.625v6.063q0 .485-2.89 1.656c-1.93.781-3.031 1.172-3.313 1.172q-.187 0-.422-.422-.221-.433-.578-1.219a20 20 0 0 0-.656-1.328c-.187-.351-.453-.531-.797-.531v-.5q.406-.186 1.063-.531 1.605-.89 1.734-.89.387 0 1.078 1.5.685 1.485 1.047 1.483.246.001.469-.203.234-.198.234-.562v-5.36c0-.757-.21-1.14-.625-1.14q-.205 0-1.594.61-1.394.608-1.562.609-.627 0-1.078-.953c-.305-.645-.453-1.43-.453-2.36v-7.125q-.001-.482.672-.484h3.828q1.592 0 1.843-.813l.578-.015 1.391 2.062q-.175.486-.703.86-.532.375-1.094.375Zm0 0" fill="#368032" data-color="1"></path>
    </g>
</svg>